<?xml version="1.0" encoding="UTF-8" standalone="no"?>
<!DOCTYPE svg PUBLIC "-//W3C//DTD SVG 1.1//EN" "http://www.w3.org/Graphics/SVG/1.1/DTD/svg11.dtd">
<svg width="100%" height="100%" viewBox="0 0 160 160" version="1.1" xmlns="http://www.w3.org/2000/svg" xmlns:xlink="http://www.w3.org/1999/xlink" xml:space="preserve" xmlns:serif="http://www.serif.com/" style="fill-rule:evenodd;clip-rule:evenodd;stroke-linejoin:round;stroke-miterlimit:1.41421;">
    <g>
        <path d="M12.5,0c6.899,0 12.5,5.601 12.5,12.5c0,6.899 -5.601,12.5 -12.5,12.5c-6.899,0 -12.5,-5.601 -12.5,-12.5c0,-6.899 5.601,-12.5 12.5,-12.5Zm0,6.25c3.449,0 6.25,2.801 6.25,6.25c0,3.449 -2.801,6.25 -6.25,6.25c-3.449,0 -6.25,-2.801 -6.25,-6.25c0,-3.449 2.801,-6.25 6.25,-6.25Z" style="fill:url(#_Linear1);"/>
        <path d="M12.5,45c6.899,0 12.5,5.601 12.5,12.5c0,6.899 -5.601,12.5 -12.5,12.5c-6.899,0 -12.5,-5.601 -12.5,-12.5c0,-6.899 5.601,-12.5 12.5,-12.5Zm0,6.25c3.449,0 6.25,2.801 6.25,6.25c0,3.449 -2.801,6.25 -6.25,6.25c-3.449,0 -6.25,-2.801 -6.25,-6.25c0,-3.449 2.801,-6.25 6.25,-6.25Z" style="fill:url(#_Linear2);"/>
        <path d="M12.5,90c6.899,0 12.5,5.601 12.5,12.5c0,6.899 -5.601,12.5 -12.5,12.5c-6.899,0 -12.5,-5.601 -12.5,-12.5c0,-6.899 5.601,-12.5 12.5,-12.5Zm0,6.25c3.449,0 6.25,2.801 6.25,6.25c0,3.449 -2.801,6.25 -6.25,6.25c-3.449,0 -6.25,-2.801 -6.25,-6.25c0,-3.449 2.801,-6.25 6.25,-6.25Z" style="fill:url(#_Linear3);"/>
        <path d="M12.5,135c6.899,0 12.5,5.601 12.5,12.5c0,6.899 -5.601,12.5 -12.5,12.5c-6.899,0 -12.5,-5.601 -12.5,-12.5c0,-6.899 5.601,-12.5 12.5,-12.5Zm0,6.25c3.449,0 6.25,2.801 6.25,6.25c0,3.449 -2.801,6.25 -6.25,6.25c-3.449,0 -6.25,-2.801 -6.25,-6.25c0,-3.449 2.801,-6.25 6.25,-6.25Z" style="fill:url(#_Linear4);"/>
        <path d="M57.5,0c6.899,0 12.5,5.601 12.5,12.5c0,6.899 -5.601,12.5 -12.5,12.5c-6.899,0 -12.5,-5.601 -12.5,-12.5c0,-6.899 5.601,-12.5 12.5,-12.5Zm0,6.25c3.449,0 6.25,2.801 6.25,6.25c0,3.449 -2.801,6.25 -6.25,6.25c-3.449,0 -6.25,-2.801 -6.25,-6.25c0,-3.449 2.801,-6.25 6.25,-6.25Z" style="fill:url(#_Linear5);"/>
        <path d="M57.5,45c6.899,0 12.5,5.601 12.5,12.5c0,6.899 -5.601,12.5 -12.5,12.5c-6.899,0 -12.5,-5.601 -12.5,-12.5c0,-6.899 5.601,-12.5 12.5,-12.5Zm0,6.25c3.449,0 6.25,2.801 6.25,6.25c0,3.449 -2.801,6.25 -6.25,6.25c-3.449,0 -6.25,-2.801 -6.25,-6.25c0,-3.449 2.801,-6.25 6.25,-6.25Z" style="fill:url(#_Linear6);"/>
        <path d="M57.5,90c6.899,0 12.5,5.601 12.5,12.5c0,6.899 -5.601,12.5 -12.5,12.5c-6.899,0 -12.5,-5.601 -12.5,-12.5c0,-6.899 5.601,-12.5 12.5,-12.5Zm0,6.25c3.449,0 6.25,2.801 6.25,6.25c0,3.449 -2.801,6.25 -6.25,6.25c-3.449,0 -6.25,-2.801 -6.25,-6.25c0,-3.449 2.801,-6.25 6.25,-6.25Z" style="fill:url(#_Linear7);"/>
        <path d="M57.5,135c6.899,0 12.5,5.601 12.5,12.5c0,6.899 -5.601,12.5 -12.5,12.5c-6.899,0 -12.5,-5.601 -12.5,-12.5c0,-6.899 5.601,-12.5 12.5,-12.5Zm0,6.25c3.449,0 6.25,2.801 6.25,6.25c0,3.449 -2.801,6.25 -6.25,6.25c-3.449,0 -6.25,-2.801 -6.25,-6.25c0,-3.449 2.801,-6.25 6.25,-6.25Z" style="fill:url(#_Linear8);"/>
        <path d="M102.5,0c6.899,0 12.5,5.601 12.5,12.5c0,6.899 -5.601,12.5 -12.5,12.5c-6.899,0 -12.5,-5.601 -12.5,-12.5c0,-6.899 5.601,-12.5 12.5,-12.5Zm0,6.25c3.449,0 6.25,2.801 6.25,6.25c0,3.449 -2.801,6.25 -6.25,6.25c-3.449,0 -6.25,-2.801 -6.25,-6.25c0,-3.449 2.801,-6.25 6.25,-6.25Z" style="fill:url(#_Linear9);"/>
        <path d="M102.5,45c6.899,0 12.5,5.601 12.5,12.5c0,6.899 -5.601,12.5 -12.5,12.5c-6.899,0 -12.5,-5.601 -12.5,-12.5c0,-6.899 5.601,-12.5 12.5,-12.5Zm0,6.25c3.449,0 6.25,2.801 6.25,6.25c0,3.449 -2.801,6.25 -6.25,6.25c-3.449,0 -6.25,-2.801 -6.25,-6.25c0,-3.449 2.801,-6.25 6.25,-6.25Z" style="fill:url(#_Linear10);"/>
        <path d="M102.5,90c6.899,0 12.5,5.601 12.5,12.5c0,6.899 -5.601,12.5 -12.5,12.5c-6.899,0 -12.5,-5.601 -12.5,-12.5c0,-6.899 5.601,-12.5 12.5,-12.5Zm0,6.25c3.449,0 6.25,2.801 6.25,6.25c0,3.449 -2.801,6.25 -6.25,6.25c-3.449,0 -6.25,-2.801 -6.25,-6.25c0,-3.449 2.801,-6.25 6.25,-6.25Z" style="fill:url(#_Linear11);"/>
        <path d="M102.5,135c6.899,0 12.5,5.601 12.5,12.5c0,6.899 -5.601,12.5 -12.5,12.5c-6.899,0 -12.5,-5.601 -12.5,-12.5c0,-6.899 5.601,-12.5 12.5,-12.5Zm0,6.25c3.449,0 6.25,2.801 6.25,6.25c0,3.449 -2.801,6.25 -6.25,6.25c-3.449,0 -6.25,-2.801 -6.25,-6.25c0,-3.449 2.801,-6.25 6.25,-6.25Z" style="fill:url(#_Linear12);"/>
        <path d="M147.5,0c6.899,0 12.5,5.601 12.5,12.5c0,6.899 -5.601,12.5 -12.5,12.5c-6.899,0 -12.5,-5.601 -12.5,-12.5c0,-6.899 5.601,-12.5 12.5,-12.5Zm0,6.25c3.449,0 6.25,2.801 6.25,6.25c0,3.449 -2.801,6.25 -6.25,6.25c-3.449,0 -6.25,-2.801 -6.25,-6.25c0,-3.449 2.801,-6.25 6.25,-6.25Z" style="fill:url(#_Linear13);"/>
        <path d="M147.5,45c6.899,0 12.5,5.601 12.5,12.5c0,6.899 -5.601,12.5 -12.5,12.5c-6.899,0 -12.5,-5.601 -12.5,-12.5c0,-6.899 5.601,-12.5 12.5,-12.5Zm0,6.25c3.449,0 6.25,2.801 6.25,6.25c0,3.449 -2.801,6.25 -6.25,6.25c-3.449,0 -6.25,-2.801 -6.25,-6.25c0,-3.449 2.801,-6.25 6.25,-6.25Z" style="fill:url(#_Linear14);"/>
        <path d="M147.5,90c6.899,0 12.5,5.601 12.5,12.5c0,6.899 -5.601,12.5 -12.5,12.5c-6.899,0 -12.5,-5.601 -12.5,-12.5c0,-6.899 5.601,-12.5 12.5,-12.5Zm0,6.25c3.449,0 6.25,2.801 6.25,6.25c0,3.449 -2.801,6.25 -6.25,6.25c-3.449,0 -6.25,-2.801 -6.25,-6.25c0,-3.449 2.801,-6.25 6.25,-6.25Z" style="fill:url(#_Linear15);"/>
        <path d="M147.5,135c6.899,0 12.5,5.601 12.5,12.5c0,6.899 -5.601,12.5 -12.5,12.5c-6.899,0 -12.5,-5.601 -12.5,-12.5c0,-6.899 5.601,-12.5 12.5,-12.5Zm0,6.25c3.449,0 6.25,2.801 6.25,6.25c0,3.449 -2.801,6.25 -6.25,6.25c-3.449,0 -6.25,-2.801 -6.25,-6.25c0,-3.449 2.801,-6.25 6.25,-6.25Z" style="fill:url(#_Linear16);"/>
    </g>
    <defs>
        <linearGradient id="_Linear1" x1="0" y1="0" x2="1" y2="0" gradientUnits="userSpaceOnUse" gradientTransform="matrix(160,160,-160,160,1.86446e-11,-1.42109e-14)"><stop offset="0" style="stop-color:#ff8b6b;stop-opacity:1"/><stop offset="1" style="stop-color:#ff639a;stop-opacity:1"/></linearGradient>
        <linearGradient id="_Linear2" x1="0" y1="0" x2="1" y2="0" gradientUnits="userSpaceOnUse" gradientTransform="matrix(160,160,-160,160,1.90994e-11,7.10543e-15)"><stop offset="0" style="stop-color:#ff8b6b;stop-opacity:1"/><stop offset="1" style="stop-color:#ff639a;stop-opacity:1"/></linearGradient>
        <linearGradient id="_Linear3" x1="0" y1="0" x2="1" y2="0" gradientUnits="userSpaceOnUse" gradientTransform="matrix(160,160,-160,160,1.95541e-11,2.30926e-14)"><stop offset="0" style="stop-color:#ff8b6b;stop-opacity:1"/><stop offset="1" style="stop-color:#ff639a;stop-opacity:1"/></linearGradient>
        <linearGradient id="_Linear4" x1="0" y1="0" x2="1" y2="0" gradientUnits="userSpaceOnUse" gradientTransform="matrix(160,160,-160,160,1.90994e-11,-2.4869e-14)"><stop offset="0" style="stop-color:#ff8b6b;stop-opacity:1"/><stop offset="1" style="stop-color:#ff639a;stop-opacity:1"/></linearGradient>
        <linearGradient id="_Linear5" x1="0" y1="0" x2="1" y2="0" gradientUnits="userSpaceOnUse" gradientTransform="matrix(160,160,-160,160,1.90994e-11,-1.42109e-14)"><stop offset="0" style="stop-color:#ff8b6b;stop-opacity:1"/><stop offset="1" style="stop-color:#ff639a;stop-opacity:1"/></linearGradient>
        <linearGradient id="_Linear6" x1="0" y1="0" x2="1" y2="0" gradientUnits="userSpaceOnUse" gradientTransform="matrix(160,160,-160,160,1.90994e-11,7.10543e-15)"><stop offset="0" style="stop-color:#ff8b6b;stop-opacity:1"/><stop offset="1" style="stop-color:#ff639a;stop-opacity:1"/></linearGradient>
        <linearGradient id="_Linear7" x1="0" y1="0" x2="1" y2="0" gradientUnits="userSpaceOnUse" gradientTransform="matrix(160,160,-160,160,1.95541e-11,2.30926e-14)"><stop offset="0" style="stop-color:#ff8b6b;stop-opacity:1"/><stop offset="1" style="stop-color:#ff639a;stop-opacity:1"/></linearGradient>
        <linearGradient id="_Linear8" x1="0" y1="0" x2="1" y2="0" gradientUnits="userSpaceOnUse" gradientTransform="matrix(160,160,-160,160,1.90994e-11,-2.4869e-14)"><stop offset="0" style="stop-color:#ff8b6b;stop-opacity:1"/><stop offset="1" style="stop-color:#ff639a;stop-opacity:1"/></linearGradient>
        <linearGradient id="_Linear9" x1="0" y1="0" x2="1" y2="0" gradientUnits="userSpaceOnUse" gradientTransform="matrix(160,160,-160,160,1.95541e-11,-1.42109e-14)"><stop offset="0" style="stop-color:#ff8b6b;stop-opacity:1"/><stop offset="1" style="stop-color:#ff639a;stop-opacity:1"/></linearGradient>
        <linearGradient id="_Linear10" x1="0" y1="0" x2="1" y2="0" gradientUnits="userSpaceOnUse" gradientTransform="matrix(160,160,-160,160,1.90994e-11,7.10543e-14)"><stop offset="0" style="stop-color:#ff8b6b;stop-opacity:1"/><stop offset="1" style="stop-color:#ff639a;stop-opacity:1"/></linearGradient>
        <linearGradient id="_Linear11" x1="0" y1="0" x2="1" y2="0" gradientUnits="userSpaceOnUse" gradientTransform="matrix(160,160,-160,160,1.86446e-11,-1.06581e-13)"><stop offset="0" style="stop-color:#ff8b6b;stop-opacity:1"/><stop offset="1" style="stop-color:#ff639a;stop-opacity:1"/></linearGradient>
        <linearGradient id="_Linear12" x1="0" y1="0" x2="1" y2="0" gradientUnits="userSpaceOnUse" gradientTransform="matrix(160,160,-160,160,1.90994e-11,-2.4869e-14)"><stop offset="0" style="stop-color:#ff8b6b;stop-opacity:1"/><stop offset="1" style="stop-color:#ff639a;stop-opacity:1"/></linearGradient>
        <linearGradient id="_Linear13" x1="0" y1="0" x2="1" y2="0" gradientUnits="userSpaceOnUse" gradientTransform="matrix(160,160,-160,160,1.90994e-11,-1.42109e-14)"><stop offset="0" style="stop-color:#ff8b6b;stop-opacity:1"/><stop offset="1" style="stop-color:#ff639a;stop-opacity:1"/></linearGradient>
        <linearGradient id="_Linear14" x1="0" y1="0" x2="1" y2="0" gradientUnits="userSpaceOnUse" gradientTransform="matrix(160,160,-160,160,1.90994e-11,-5.68434e-14)"><stop offset="0" style="stop-color:#ff8b6b;stop-opacity:1"/><stop offset="1" style="stop-color:#ff639a;stop-opacity:1"/></linearGradient>
        <linearGradient id="_Linear15" x1="0" y1="0" x2="1" y2="0" gradientUnits="userSpaceOnUse" gradientTransform="matrix(160,160,-160,160,1.90994e-11,2.30926e-14)"><stop offset="0" style="stop-color:#ff8b6b;stop-opacity:1"/><stop offset="1" style="stop-color:#ff639a;stop-opacity:1"/></linearGradient>
        <linearGradient id="_Linear16" x1="0" y1="0" x2="1" y2="0" gradientUnits="userSpaceOnUse" gradientTransform="matrix(160,160,-160,160,1.90994e-11,-2.4869e-14)"><stop offset="0" style="stop-color:#ff8b6b;stop-opacity:1"/><stop offset="1" style="stop-color:#ff639a;stop-opacity:1"/></linearGradient>
    </defs>
</svg>
