<?xml version="1.0" standalone="no"?>
<!DOCTYPE svg PUBLIC "-//W3C//DTD SVG 20010904//EN"
 "http://www.w3.org/TR/2001/REC-SVG-20010904/DTD/svg10.dtd">
<svg version="1.0" xmlns="http://www.w3.org/2000/svg"
 width="700.000000pt" height="700.000000pt" viewBox="0 0 700.000000 700.000000"
 preserveAspectRatio="xMidYMid meet">
<metadata>
Created by potrace 1.11, written by Peter Selinger 2001-2013
</metadata>
<g transform="translate(0.000000,700.000000) scale(0.100000,-0.100000)"
fill="#000000" stroke="none">
<path d="M2807 6423 c-1 0 -54 -4 -117 -7 -63 -3 -128 -8 -145 -11 -211 -31
-211 -31 -300 -51 -306 -69 -643 -219 -905 -403 -191 -133 -422 -346 -545
-501 -33 -41 -63 -77 -66 -80 -3 -3 -39 -54 -81 -115 -109 -160 -199 -325
-296 -545 -23 -52 -110 -301 -116 -333 -3 -12 -12 -49 -21 -82 -9 -33 -18 -69
-21 -80 -15 -73 -34 -177 -40 -215 -3 -25 -8 -52 -9 -60 -30 -167 -35 -610
-10 -790 3 -19 7 -60 10 -90 22 -215 131 -626 215 -805 5 -11 30 -65 56 -120
282 -603 774 -1086 1369 -1345 141 -61 151 -65 240 -93 82 -27 255 -72 313
-81 17 -4 47 -8 65 -11 17 -3 39 -7 47 -10 8 -2 46 -6 83 -10 37 -3 78 -9 90
-11 38 -9 418 -11 502 -3 362 32 666 128 934 294 171 106 345 255 489 420 l52
60 0 -305 0 -306 978 1 977 0 3 2758 c2 2621 1 2757 -15 2757 -29 1 -1760 1
-1855 0 l-88 0 -2 -270 -3 -269 -70 67 c-252 243 -528 414 -840 520 -85 29
-264 76 -330 86 -29 4 -91 13 -145 21 -77 11 -395 26 -403 18z m798 -1693
c453 -72 810 -371 985 -826 15 -41 27 -74 24 -74 -2 0 1 -11 6 -25 31 -81 53
-366 35 -455 -2 -14 -7 -42 -9 -63 -7 -50 -46 -196 -61 -227 -7 -14 -22 -47
-34 -75 -90 -201 -267 -414 -442 -531 -157 -104 -322 -168 -514 -199 -140 -22
-422 -8 -510 25 -14 5 -25 7 -25 5 0 -10 -149 48 -240 93 -358 177 -601 526
-667 957 -13 82 -6 309 11 400 46 239 161 457 335 635 197 202 424 318 701
359 134 20 286 20 405 1z"/>
</g>
</svg>
