<?xml version="1.0" standalone="no"?>
<!DOCTYPE svg PUBLIC "-//W3C//DTD SVG 20010904//EN"
 "http://www.w3.org/TR/2001/REC-SVG-20010904/DTD/svg10.dtd">
<svg version="1.0" xmlns="http://www.w3.org/2000/svg"
 width="700.000000pt" height="700.000000pt" viewBox="0 0 700.000000 700.000000"
 preserveAspectRatio="xMidYMid meet">
<metadata>
Created by potrace 1.11, written by Peter Selinger 2001-2013
</metadata>
<g transform="translate(0.000000,700.000000) scale(0.100000,-0.100000)"
fill="#000000" stroke="none">
<path d="M2778 6185 c-2 -1 -46 -5 -98 -9 -52 -4 -104 -9 -115 -11 -11 -2 -39
-6 -62 -9 -126 -15 -407 -94 -544 -152 -63 -27 -280 -135 -309 -155 -14 -9
-65 -43 -115 -75 -401 -261 -749 -690 -943 -1164 -62 -151 -132 -384 -157
-518 -3 -15 -7 -38 -10 -52 -3 -14 -7 -41 -10 -60 -3 -19 -7 -44 -9 -56 -4
-19 -13 -114 -22 -214 -5 -64 -5 -364 1 -425 16 -189 17 -197 39 -325 45 -261
133 -529 255 -770 327 -650 891 -1117 1576 -1304 50 -13 110 -28 135 -32 25
-4 47 -8 50 -9 115 -27 274 -40 495 -40 226 0 316 7 445 35 25 5 56 12 70 14
165 32 423 139 582 241 145 95 311 241 421 373 20 23 38 39 40 35 2 -5 5 -123
5 -263 0 -140 1 -262 1 -270 1 -13 106 -15 893 -13 491 0 896 2 901 2 4 1 7
1142 7 2536 l0 2535 -900 0 -900 0 -1 -22 c0 -13 -1 -126 -1 -252 l0 -228 -51
48 c-28 27 -56 54 -62 60 -35 37 -168 142 -243 193 -227 152 -466 254 -722
307 -81 17 -89 19 -165 28 -27 4 -68 9 -90 12 -40 6 -382 13 -387 9z m831
-1560 c407 -76 716 -339 875 -745 155 -396 54 -856 -261 -1190 -63 -67 -216
-190 -236 -190 -3 0 -23 -10 -44 -22 -86 -51 -264 -110 -378 -124 -75 -10
-263 -10 -334 -1 -501 67 -887 444 -975 952 -31 180 -7 448 53 588 11 26 20
49 21 52 0 3 14 33 31 67 109 216 280 391 494 504 109 58 266 105 395 119 36
4 66 8 67 9 8 8 223 -7 292 -19z"/>
</g>
</svg>
